<svg width="30" height="37" viewBox="0 0 30 37" fill="none" xmlns="http://www.w3.org/2000/svg">
<path d="M17.6484 17.4131C18.3828 16.6885 18.75 15.8175 18.75 14.8C18.75 13.7825 18.3828 12.9115 17.6484 12.1869C16.9141 11.4623 16.0312 11.1 15 11.1C13.9688 11.1 13.0859 11.4623 12.3516 12.1869C11.6172 12.9115 11.25 13.7825 11.25 14.8C11.25 15.8175 11.6172 16.6885 12.3516 17.4131C13.0859 18.1377 13.9688 18.5 15 18.5C16.0312 18.5 16.9141 18.1377 17.6484 17.4131ZM15 32.0975C18.8125 28.6442 21.6406 25.5069 23.4844 22.6856C25.3281 19.8644 26.25 17.3592 26.25 15.17C26.25 11.8092 25.1641 9.05729 22.9922 6.91437C20.8203 4.77146 18.1562 3.7 15 3.7C11.8438 3.7 9.17969 4.77146 7.00781 6.91437C4.83594 9.05729 3.75 11.8092 3.75 15.17C3.75 17.3592 4.67188 19.8644 6.51563 22.6856C8.35938 25.5069 11.1875 28.6442 15 32.0975ZM15 37C9.96875 32.7758 6.21094 28.8523 3.72656 25.2294C1.24219 21.6065 0 18.2533 0 15.17C0 10.545 1.50781 6.86042 4.52344 4.11625C7.53906 1.37208 11.0312 0 15 0C18.9688 0 22.4609 1.37208 25.4766 4.11625C28.4922 6.86042 30 10.545 30 15.17C30 18.2533 28.7578 21.6065 26.2734 25.2294C23.7891 28.8523 20.0312 32.7758 15 37Z" fill="#1C1B1F"/>
</svg>
